HIERARCHY
ROOT joint_Root
{
	OFFSET 0.0 0.0 0.0
	CHANNELS 6 Xposition Yposition Zposition Zrotation Xrotation Yrotation 
	JOINT Hips
	{
		OFFSET -17.1583 93.1646 452.98
		CHANNELS 6 Xposition Yposition Zposition Zrotation Xrotation Yrotation 
		JOINT Spine
		{
			OFFSET 15.7357 0.0 0.0
			CHANNELS 6 Xposition Yposition Zposition Zrotation Xrotation Yrotation 
			JOINT Chest
			{
				OFFSET 8.98455 -0.406207 0.0
				CHANNELS 6 Xposition Yposition Zposition Zrotation Xrotation Yrotation 
				JOINT Neck
				{
					OFFSET 16.3773 0.0 0.0
					CHANNELS 6 Xposition Yposition Zposition Zrotation Xrotation Yrotation 
					JOINT Head
					{
						OFFSET 6.45672 0.0 0.0
						CHANNELS 6 Xposition Yposition Zposition Zrotation Xrotation Yrotation 
						End Site
						{
							OFFSET 0.0 0.0 0.0
						}
					}
				}
				JOINT Shoulder_L
				{
					OFFSET 12.9942 -0.242716 4.98039
					CHANNELS 6 Xposition Yposition Zposition Zrotation Xrotation Yrotation 
					JOINT UpperArm_L
					{
						OFFSET 5.34809 0.0 0.0
						CHANNELS 6 Xposition Yposition Zposition Zrotation Xrotation Yrotation 
						JOINT LowerArm_L
						{
							OFFSET 24.3286 1.87007e-05 0.0
							CHANNELS 6 Xposition Yposition Zposition Zrotation Xrotation Yrotation 
							JOINT Hand_L
							{
								OFFSET 22.2916 0.0 0.0
								CHANNELS 6 Xposition Yposition Zposition Zrotation Xrotation Yrotation 
								End Site
								{
									OFFSET 0.0 0.0 0.0
								}
							}
						}
					}
				}
				JOINT Shoulder_R
				{
					OFFSET 12.9945 -0.242716 -4.98039
					CHANNELS 6 Xposition Yposition Zposition Zrotation Xrotation Yrotation 
					JOINT UpperArm_R
					{
						OFFSET -5.34813 0.0 0.0
						CHANNELS 6 Xposition Yposition Zposition Zrotation Xrotation Yrotation 
						JOINT LowerArm_R
						{
							OFFSET -24.3289 0.000322201 0.0
							CHANNELS 6 Xposition Yposition Zposition Zrotation Xrotation Yrotation 
							JOINT Hand_R
							{
								OFFSET -22.2915 -0.000108084 0.0
								CHANNELS 6 Xposition Yposition Zposition Zrotation Xrotation Yrotation 
								End Site
								{
									OFFSET 0.0 0.0 0.0
								}
							}
						}
					}
				}
			}
		}
		JOINT UpperLeg_L
		{
			OFFSET -2.19248 -6.46944 0.0
			CHANNELS 6 Xposition Yposition Zposition Zrotation Xrotation Yrotation 
			JOINT LowerLeg_L
			{
				OFFSET 39.0811 0.0 -1.23785e-05
				CHANNELS 6 Xposition Yposition Zposition Zrotation Xrotation Yrotation 
				JOINT Foot_L
				{
					OFFSET 40.9854 0.0 -1.26872e-05
					CHANNELS 6 Xposition Yposition Zposition Zrotation Xrotation Yrotation 
					JOINT Toes_L
					{
						OFFSET 11.7543 0.0 0.0
						CHANNELS 6 Xposition Yposition Zposition Zrotation Xrotation Yrotation 
						End Site
						{
							OFFSET 0.0 0.0 0.0
						}
					}
				}
			}
		}
		JOINT UpperLeg_R
		{
			OFFSET -2.19251 6.46944 0.0
			CHANNELS 6 Xposition Yposition Zposition Zrotation Xrotation Yrotation 
			JOINT LowerLeg_R
			{
				OFFSET -39.0811 -0.00228153 -0.0401928
				CHANNELS 6 Xposition Yposition Zposition Zrotation Xrotation Yrotation 
				JOINT Foot_R
				{
					OFFSET -40.9854 0.0 0.0
					CHANNELS 6 Xposition Yposition Zposition Zrotation Xrotation Yrotation 
					JOINT Toes_R
					{
						OFFSET -11.7543 0.0 0.0
						CHANNELS 6 Xposition Yposition Zposition Zrotation Xrotation Yrotation 
						End Site
						{
							OFFSET 0.0 0.0 0.0
						}
					}
				}
			}
		}
	}
}
MOTION
Frames:	4
Frame Time:	0.0333333
0.000000 0.000000 0.000000 0.000000 0.000000 -0.000000 -4.232260 93.290400 0.510647 86.565600 5.331410 -1.011350 15.735700 0.000005 -0.000001 74.543200 87.461100 -79.939300 8.984550 -0.406207 -0.000000 -2.889160 -0.851914 -10.814600 16.377300 -0.000001 -0.000001 1.334760 1.595160 -9.756900 6.456720 -0.000001 -0.000000 -13.916000 8.874660 -20.522200 12.994200 -0.242716 4.980390 -93.033300 7.999800 -69.155400 5.348090 -0.000007 -0.000001 -57.014000 -15.491000 5.165480 24.328600 0.000019 0.000005 13.417500 26.578300 -28.065700 22.291600 -0.000001 0.000005 4.664640 4.905880 9.260400 12.994500 -0.242716 -4.980390 94.221600 -7.506120 -60.530800 -5.348130 -0.000001 -0.000004 -64.845300 -67.989000 -104.310000 -24.328900 0.000322 -0.000009 -0.001076 -26.636600 -0.000154 -22.291500 -0.000108 -0.000004 44.602300 5.400560 -2.955770 -2.192480 -6.469440 -0.000000 -168.825000 -8.460650 -1.956000 39.081100 -0.000007 -0.000012 -0.037024 0.173604 12.038700 40.985400 -0.000006 -0.000013 -3.932740 21.866700 -67.136200 11.754300 -0.000000 0.000003 -0.002081 0.197355 -8.569830 -2.192510 6.469440 -0.000001 -179.848000 10.923200 -178.268000 -39.081100 -0.002282 -0.040193 -0.002551 0.044754 7.502260 -40.985400 0.000008 0.000006 -7.653610 11.295800 -64.198100 -11.754300 -0.000006 -0.000006 -0.008480 0.259576 -6.030440
0.000000 0.000000 0.000000 0.000000 0.000000 -0.000000 -4.257410 93.292100 0.525277 86.578100 5.301530 -1.081960 15.735700 0.000005 -0.000001 74.393000 87.481300 -79.780000 8.984550 -0.406207 -0.000000 -2.931680 -0.852709 -10.796900 16.377300 -0.000001 -0.000001 1.519010 1.493910 -9.558170 6.456720 -0.000001 -0.000000 -13.752800 8.675940 -20.424000 12.994200 -0.242716 4.980390 -93.046000 8.028490 -69.143200 5.348090 -0.000007 -0.000001 -57.058900 -15.637000 5.163820 24.328600 0.000019 0.000005 13.321500 26.513000 -27.942900 22.291600 -0.000001 0.000005 4.591000 4.911520 9.147110 12.994500 -0.242716 -4.980390 94.213600 -7.479340 -60.490700 -5.348130 -0.000001 -0.000004 -64.372200 -67.888000 -103.906000 -24.328900 0.000322 -0.000009 -0.001076 -26.495700 -0.000153 -22.291500 -0.000108 -0.000004 44.206700 5.400620 -2.958730 -2.192480 -6.469440 -0.000000 -168.824000 -8.411220 -1.959940 39.081100 -0.000007 -0.000012 -0.036077 0.170740 11.930800 40.985400 -0.000006 -0.000013 -4.015290 21.779000 -67.075800 11.754300 -0.000000 0.000003 -0.002071 0.197235 -8.574680 -2.192510 6.469440 -0.000001 -179.825000 10.928000 -178.341000 -39.081100 -0.002282 -0.040193 -0.002416 0.043679 7.510880 -40.985400 0.000008 0.000006 -7.657900 11.308500 -64.181500 -11.754300 -0.000006 -0.000006 -0.008275 0.257933 -6.097580
0.000000 0.000000 0.000000 0.000000 0.000000 -0.000000 -4.272970 93.286300 0.561616 86.592500 5.261750 -1.108070 15.735700 0.000005 -0.000001 74.712500 87.493600 -80.093100 8.984550 -0.406207 -0.000000 -2.946310 -0.819069 -10.783300 16.377300 -0.000001 -0.000001 1.710690 1.361560 -9.403600 6.456720 -0.000001 -0.000000 -13.652100 8.415770 -20.231200 12.994200 -0.242716 4.980390 -93.083900 8.096950 -69.067400 5.348090 -0.000007 -0.000001 -57.126300 -15.648800 5.168850 24.328600 0.000019 0.000005 13.279600 26.513100 -27.865500 22.291600 -0.000001 0.000005 4.517530 4.914300 9.091410 12.994500 -0.242716 -4.980390 94.188600 -7.427710 -60.467700 -5.348130 -0.000001 -0.000004 -64.497200 -67.740700 -104.056000 -24.328900 0.000322 -0.000009 -0.001075 -26.460600 -0.000153 -22.291500 -0.000108 -0.000004 43.959700 5.400460 -2.953440 -2.192480 -6.469440 -0.000000 -168.826000 -8.429370 -1.954040 39.081100 -0.000007 -0.000012 -0.036188 0.171255 11.931600 40.985400 -0.000006 -0.000013 -4.070540 21.783100 -67.072000 11.754300 -0.000000 0.000003 -0.002051 0.196983 -8.584930 -2.192510 6.469440 -0.000001 -179.827000 10.969100 -178.376000 -39.081100 -0.002282 -0.040193 -0.002454 0.043549 7.581690 -40.985400 0.000008 0.000006 -7.531120 11.378500 -64.268200 -11.754300 -0.000006 -0.000006 -0.008091 0.256442 -6.158490
0.000000 0.000000 0.000000 0.000000 0.000000 -0.000000 -4.281480 93.289600 0.585696 86.602800 5.263590 -1.124850 15.735700 0.000005 -0.000001 74.918900 87.495600 -80.276400 8.984550 -0.406207 -0.000000 -2.944760 -0.802834 -10.736800 16.377300 -0.000001 -0.000001 1.889160 1.192890 -9.258780 6.456720 -0.000001 -0.000000 -13.622100 8.128500 -20.109000 12.994200 -0.242716 4.980390 -93.115700 8.159260 -69.016800 5.348090 -0.000007 -0.000001 -57.301800 -15.662600 5.185940 24.328600 0.000019 0.000005 13.282100 26.654000 -27.753800 22.291600 -0.000001 0.000005 4.372040 4.914490 9.087320 12.994500 -0.242716 -4.980390 94.164100 -7.378050 -60.448800 -5.348130 -0.000001 -0.000004 -64.452200 -67.616700 -104.125000 -24.328900 0.000322 -0.000009 -0.001075 -26.390800 -0.000153 -22.291500 -0.000108 -0.000004 43.749400 5.399300 -2.915190 -2.192480 -6.469440 -0.000000 -168.815000 -8.477330 -1.907690 39.081100 -0.000007 -0.000012 -0.036148 0.172565 11.830700 40.985400 -0.000006 -0.000013 -4.172650 21.825000 -66.977200 11.754300 -0.000000 0.000003 -0.002186 0.198655 -8.516940 -2.192510 6.469440 -0.000001 -179.835000 10.912600 -178.339000 -39.081100 -0.002282 -0.040193 -0.002353 0.043241 7.504820 -40.985400 0.000008 0.000006 -7.628120 11.344500 -64.222500 -11.754300 -0.000006 -0.000006 -0.008273 0.257915 -6.098320
